<svg xmlns="http://www.w3.org/2000/svg" version="1.1" xmlns:xlink="http://www.w3.org/1999/xlink" xmlns:svgjs="http://svgjs.dev/svgjs" width="2000" height="1247" viewBox="0 0 2000 1247"><g transform="matrix(1,0,0,1,-1.2121212121212466,0.504858299595071)"><svg viewBox="0 0 396 247" data-background-color="#ffffff" preserveAspectRatio="xMidYMid meet" height="1247" width="2000" xmlns="http://www.w3.org/2000/svg" xmlns:xlink="http://www.w3.org/1999/xlink"><g id="tight-bounds" transform="matrix(1,0,0,1,0.2400000000000091,-0.09999999999999432)"><svg viewBox="0 0 395.52 247.2" height="247.2" width="395.52"><g><svg></svg></g><g><svg viewBox="0 0 395.52 247.2" height="247.2" width="395.52"><g mask="url(&quot;#6af11749-23ef-4640-8b3a-75254ab02200&quot;)"><g><path xmlns="http://www.w3.org/2000/svg" d="M133.958 212.24c-3.541 0-6.11-0.817-7.706-2.451-1.634-1.596-2.452-4.145-2.451-7.647v0-157.2c0-3.541 0.817-6.09 2.451-7.647 1.596-1.557 4.164-2.335 7.706-2.335v0h56.68c17.395 0 32.144 3.386 44.248 10.157 12.142 6.81 21.326 16.812 27.552 30.004 6.188 13.231 9.281 29.342 9.281 48.333v0c0 19.108-3.094 35.258-9.281 48.45-6.227 13.192-15.411 23.213-27.552 30.063-12.103 6.849-26.852 10.274-44.248 10.273v0zM163.144 179.026h27.494c13.504 0 23.719-4.728 30.647-14.185 6.927-9.457 10.39-23.252 10.39-41.387v0c0-18.057-3.463-31.814-10.39-41.27-6.927-9.457-17.142-14.185-30.647-14.185v0h-27.494z" fill="#ee3e38" fill-rule="nonzero" stroke="none" stroke-width="1" stroke-linecap="butt" stroke-linejoin="miter" stroke-miterlimit="10" stroke-dasharray="" stroke-dashoffset="0" font-family="none" font-weight="none" font-size="none" text-anchor="none" style="mix-blend-mode: normal" data-fill-palette-color="tertiary"></path></g></g><g transform="matrix(1,0,0,1,123.54198785201545,37.08)"><svg viewBox="0 0 148.43602429596908 173.04" height="173.04" width="148.43602429596908"><g><svg viewBox="0 0 148.43602429596908 173.04" height="173.04" width="148.43602429596908"><g><svg viewBox="0 0 148.43602429596908 173.04" height="173.04" width="148.43602429596908"><g><svg viewBox="0 0 148.43602429596908 173.04" height="173.04" width="148.43602429596908"><g id="textblocktransform"><svg viewBox="0 0 148.43602429596908 173.04" height="173.04" width="148.43602429596908" id="textblock"><g><svg viewBox="0 0 148.43602429596908 173.04" height="173.04" width="148.43602429596908"><g transform="matrix(1,0,0,1,0,0)"><svg width="148.43602429596908" viewBox="0 -33.3700008392334 31.34000015258789 36.3700008392334" height="173.04" data-palette-color="#ee3e38"><path d="M4.74 0Q3.83 0 3.42-0.42 3-0.83 3-1.73L3-1.73 3-28.66Q3-29.57 3.42-29.97 3.83-30.37 4.74-30.37L4.74-30.37 14.45-30.37Q18.92-30.37 22.03-28.63 25.15-26.88 26.75-23.49 28.34-20.09 28.34-15.21L28.34-15.21Q28.34-10.3 26.75-6.91 25.15-3.52 22.03-1.76 18.92 0 14.45 0L14.45 0 4.74 0ZM9.74-5.69L14.45-5.69Q17.92-5.69 19.7-8.12 21.48-10.55 21.48-15.21L21.48-15.21Q21.48-19.85 19.7-22.28 17.92-24.71 14.45-24.71L14.45-24.71 9.74-24.71 9.74-5.69Z" opacity="1" transform="matrix(1,0,0,1,0,0)" fill="#ee3e38" class="undefined-text-0" data-fill-palette-color="primary" id="text-0"></path></svg></g></svg></g></svg></g></svg></g><g></g></svg></g></svg></g></svg></g></svg></g><defs><mask id="acc2aa64-30c4-44c7-a275-38d4cb06504b"><rect width="395.52" height="247.2" fill="white"></rect><g transform="matrix(1,0,0,1,123.54198785201545,37.08)" id="clone"><svg viewBox="0 0 148.43602429596908 173.04" height="173.04" width="148.43602429596908"><g><svg viewBox="0 0 148.43602429596908 173.04" height="173.04" width="148.43602429596908"><g><svg viewBox="0 0 148.43602429596908 173.04" height="173.04" width="148.43602429596908"><g><svg viewBox="0 0 148.43602429596908 173.04" height="173.04" width="148.43602429596908"><g id="SvgjsG1011"><svg viewBox="0 0 148.43602429596908 173.04" height="173.04" width="148.43602429596908" id="SvgjsSvg1010"><g><svg viewBox="0 0 148.43602429596908 173.04" height="173.04" width="148.43602429596908"><g transform="matrix(1,0,0,1,0,0)"><svg width="148.43602429596908" viewBox="0 -33.3700008392334 31.34000015258789 36.3700008392334" height="173.04" data-palette-color="#ee3e38"><path d="M4.74 0Q3.83 0 3.42-0.42 3-0.83 3-1.73L3-1.73 3-28.66Q3-29.57 3.42-29.97 3.83-30.37 4.74-30.37L4.74-30.37 14.45-30.37Q18.92-30.37 22.03-28.63 25.15-26.88 26.75-23.49 28.34-20.09 28.34-15.21L28.34-15.21Q28.34-10.3 26.75-6.91 25.15-3.52 22.03-1.76 18.92 0 14.45 0L14.45 0 4.74 0ZM9.74-5.69L14.45-5.69Q17.92-5.69 19.7-8.12 21.48-10.55 21.48-15.21L21.48-15.21Q21.48-19.85 19.7-22.28 17.92-24.71 14.45-24.71L14.45-24.71 9.74-24.71 9.74-5.69Z" opacity="1" transform="matrix(1,0,0,1,0,0)" fill="#ee3e38" class="undefined-text-0" data-fill-palette-color="primary" id="SvgjsPath1009" stroke-width="5" stroke="black" stroke-linejoin="round"></path></svg></g></svg></g></svg></g></svg></g><g></g></svg></g></svg></g></svg></g></mask><mask id="6af11749-23ef-4640-8b3a-75254ab02200"><rect width="395.52" height="247.2" fill="white"></rect><g transform="matrix(1,0,0,1,123.54198785201545,37.08)" id="clone"><svg viewBox="0 0 148.43602429596908 173.04" height="173.04" width="148.43602429596908"><g><svg viewBox="0 0 148.43602429596908 173.04" height="173.04" width="148.43602429596908"><g><svg viewBox="0 0 148.43602429596908 173.04" height="173.04" width="148.43602429596908"><g><svg viewBox="0 0 148.43602429596908 173.04" height="173.04" width="148.43602429596908"><g id="SvgjsG1044"><svg viewBox="0 0 148.43602429596908 173.04" height="173.04" width="148.43602429596908" id="SvgjsSvg1043"><g><svg viewBox="0 0 148.43602429596908 173.04" height="173.04" width="148.43602429596908"><g transform="matrix(1,0,0,1,0,0)"><svg width="148.43602429596908" viewBox="0 -33.3700008392334 31.34000015258789 36.3700008392334" height="173.04" data-palette-color="#ee3e38"><path d="M4.74 0Q3.83 0 3.42-0.42 3-0.83 3-1.73L3-1.73 3-28.66Q3-29.57 3.42-29.97 3.83-30.37 4.74-30.37L4.74-30.37 14.45-30.37Q18.92-30.37 22.03-28.63 25.15-26.88 26.75-23.49 28.34-20.09 28.34-15.21L28.34-15.21Q28.34-10.3 26.75-6.91 25.15-3.52 22.03-1.76 18.92 0 14.45 0L14.45 0 4.74 0ZM9.74-5.69L14.45-5.69Q17.92-5.69 19.7-8.12 21.48-10.55 21.48-15.21L21.48-15.21Q21.48-19.85 19.7-22.28 17.92-24.71 14.45-24.71L14.45-24.71 9.74-24.71 9.74-5.69Z" opacity="1" transform="matrix(1,0,0,1,0,0)" fill="#ee3e38" class="undefined-text-0" data-fill-palette-color="primary" id="SvgjsPath1042" stroke-width="5" stroke="black" stroke-linejoin="round"></path></svg></g></svg></g></svg></g></svg></g><g></g></svg></g></svg></g></svg></g></mask></defs></svg><rect width="395.52" height="247.2" fill="none" stroke="none" visibility="hidden"></rect></g></svg></g></svg>